<mxfile host="app.diagrams.net" modified="2024-12-11T09:37:56.073Z" agent="Mozilla/5.0 (Macintosh; Intel Mac OS X 10_15_7) AppleWebKit/537.36 (KHTML, like Gecko) Chrome/131.0.0.0 Safari/537.36" etag="z1I_vuissY3gTRLvtmhr" version="23.0.1" type="github">
  <diagram id="wFE0QG_FPsp0jaGvCLVb" name="Page-1">
    <mxGraphModel dx="1253" dy="783" grid="1" gridSize="10" guides="1" tooltips="1" connect="1" arrows="1" fold="1" page="1" pageScale="1" pageWidth="850" pageHeight="1100" math="0" shadow="0">
      <root>
        <mxCell id="0" />
        <mxCell id="1" parent="0" />
        <mxCell id="dFV4Ou_4mQmUEe5zhMc_-5" value="DB" style="rounded=0;whiteSpace=wrap;html=1;" vertex="1" parent="1">
          <mxGeometry x="840" y="760" width="170" height="30" as="geometry" />
        </mxCell>
        <mxCell id="dFV4Ou_4mQmUEe5zhMc_-16" style="edgeStyle=orthogonalEdgeStyle;rounded=0;orthogonalLoop=1;jettySize=auto;html=1;entryX=0.5;entryY=0;entryDx=0;entryDy=0;" edge="1" parent="1" source="dFV4Ou_4mQmUEe5zhMc_-7" target="dFV4Ou_4mQmUEe5zhMc_-5">
          <mxGeometry relative="1" as="geometry" />
        </mxCell>
        <mxCell id="dFV4Ou_4mQmUEe5zhMc_-19" style="edgeStyle=orthogonalEdgeStyle;rounded=0;orthogonalLoop=1;jettySize=auto;html=1;exitX=1;exitY=0.5;exitDx=0;exitDy=0;entryX=0;entryY=0.5;entryDx=0;entryDy=0;" edge="1" parent="1" source="dFV4Ou_4mQmUEe5zhMc_-7" target="dFV4Ou_4mQmUEe5zhMc_-9">
          <mxGeometry relative="1" as="geometry" />
        </mxCell>
        <mxCell id="dFV4Ou_4mQmUEe5zhMc_-34" style="edgeStyle=orthogonalEdgeStyle;rounded=0;orthogonalLoop=1;jettySize=auto;html=1;exitX=0.5;exitY=0;exitDx=0;exitDy=0;entryX=0;entryY=0.5;entryDx=0;entryDy=0;" edge="1" parent="1" source="dFV4Ou_4mQmUEe5zhMc_-7" target="dFV4Ou_4mQmUEe5zhMc_-13">
          <mxGeometry relative="1" as="geometry" />
        </mxCell>
        <mxCell id="dFV4Ou_4mQmUEe5zhMc_-35" style="edgeStyle=orthogonalEdgeStyle;rounded=0;orthogonalLoop=1;jettySize=auto;html=1;exitX=0.5;exitY=0;exitDx=0;exitDy=0;entryX=0;entryY=0.5;entryDx=0;entryDy=0;" edge="1" parent="1" source="dFV4Ou_4mQmUEe5zhMc_-7" target="dFV4Ou_4mQmUEe5zhMc_-14">
          <mxGeometry relative="1" as="geometry" />
        </mxCell>
        <mxCell id="dFV4Ou_4mQmUEe5zhMc_-7" value="Core" style="rounded=0;whiteSpace=wrap;html=1;" vertex="1" parent="1">
          <mxGeometry x="840" y="570" width="170" height="30" as="geometry" />
        </mxCell>
        <mxCell id="dFV4Ou_4mQmUEe5zhMc_-38" style="edgeStyle=orthogonalEdgeStyle;rounded=0;orthogonalLoop=1;jettySize=auto;html=1;exitX=1;exitY=0.5;exitDx=0;exitDy=0;entryX=0;entryY=0.5;entryDx=0;entryDy=0;" edge="1" parent="1" source="dFV4Ou_4mQmUEe5zhMc_-8" target="dFV4Ou_4mQmUEe5zhMc_-12">
          <mxGeometry relative="1" as="geometry" />
        </mxCell>
        <mxCell id="dFV4Ou_4mQmUEe5zhMc_-8" value="Web UI" style="rounded=0;whiteSpace=wrap;html=1;" vertex="1" parent="1">
          <mxGeometry x="380" y="505" width="170" height="30" as="geometry" />
        </mxCell>
        <mxCell id="dFV4Ou_4mQmUEe5zhMc_-20" style="edgeStyle=orthogonalEdgeStyle;rounded=0;orthogonalLoop=1;jettySize=auto;html=1;exitX=0;exitY=0.5;exitDx=0;exitDy=0;" edge="1" parent="1" source="dFV4Ou_4mQmUEe5zhMc_-9">
          <mxGeometry relative="1" as="geometry">
            <mxPoint x="1010" y="585.2903225806451" as="targetPoint" />
          </mxGeometry>
        </mxCell>
        <mxCell id="dFV4Ou_4mQmUEe5zhMc_-21" style="edgeStyle=orthogonalEdgeStyle;rounded=0;orthogonalLoop=1;jettySize=auto;html=1;exitX=1;exitY=0.5;exitDx=0;exitDy=0;entryX=0;entryY=0.5;entryDx=0;entryDy=0;" edge="1" parent="1" source="dFV4Ou_4mQmUEe5zhMc_-9" target="dFV4Ou_4mQmUEe5zhMc_-10">
          <mxGeometry relative="1" as="geometry" />
        </mxCell>
        <mxCell id="dFV4Ou_4mQmUEe5zhMc_-29" style="edgeStyle=orthogonalEdgeStyle;rounded=0;orthogonalLoop=1;jettySize=auto;html=1;exitX=0.5;exitY=0;exitDx=0;exitDy=0;entryX=1;entryY=0.5;entryDx=0;entryDy=0;" edge="1" parent="1" source="dFV4Ou_4mQmUEe5zhMc_-9" target="dFV4Ou_4mQmUEe5zhMc_-13">
          <mxGeometry relative="1" as="geometry" />
        </mxCell>
        <mxCell id="dFV4Ou_4mQmUEe5zhMc_-41" style="edgeStyle=orthogonalEdgeStyle;rounded=0;orthogonalLoop=1;jettySize=auto;html=1;exitX=0.5;exitY=0;exitDx=0;exitDy=0;entryX=1;entryY=0.5;entryDx=0;entryDy=0;" edge="1" parent="1" source="dFV4Ou_4mQmUEe5zhMc_-9" target="dFV4Ou_4mQmUEe5zhMc_-14">
          <mxGeometry relative="1" as="geometry" />
        </mxCell>
        <mxCell id="dFV4Ou_4mQmUEe5zhMc_-9" value="Connector" style="rounded=0;whiteSpace=wrap;html=1;" vertex="1" parent="1">
          <mxGeometry x="1070" y="570" width="170" height="30" as="geometry" />
        </mxCell>
        <mxCell id="dFV4Ou_4mQmUEe5zhMc_-22" style="edgeStyle=orthogonalEdgeStyle;rounded=0;orthogonalLoop=1;jettySize=auto;html=1;exitX=0;exitY=0.5;exitDx=0;exitDy=0;entryX=1;entryY=0.5;entryDx=0;entryDy=0;" edge="1" parent="1" source="dFV4Ou_4mQmUEe5zhMc_-10" target="dFV4Ou_4mQmUEe5zhMc_-9">
          <mxGeometry relative="1" as="geometry" />
        </mxCell>
        <mxCell id="dFV4Ou_4mQmUEe5zhMc_-10" value="Asset" style="rounded=0;whiteSpace=wrap;html=1;" vertex="1" parent="1">
          <mxGeometry x="1300" y="570" width="170" height="30" as="geometry" />
        </mxCell>
        <mxCell id="dFV4Ou_4mQmUEe5zhMc_-40" style="edgeStyle=orthogonalEdgeStyle;rounded=0;orthogonalLoop=1;jettySize=auto;html=1;exitX=1;exitY=0.5;exitDx=0;exitDy=0;entryX=0;entryY=0.5;entryDx=0;entryDy=0;" edge="1" parent="1" source="dFV4Ou_4mQmUEe5zhMc_-11" target="dFV4Ou_4mQmUEe5zhMc_-12">
          <mxGeometry relative="1" as="geometry" />
        </mxCell>
        <mxCell id="dFV4Ou_4mQmUEe5zhMc_-11" value="Client" style="rounded=0;whiteSpace=wrap;html=1;" vertex="1" parent="1">
          <mxGeometry x="380" y="630" width="170" height="30" as="geometry" />
        </mxCell>
        <mxCell id="dFV4Ou_4mQmUEe5zhMc_-37" style="edgeStyle=orthogonalEdgeStyle;rounded=0;orthogonalLoop=1;jettySize=auto;html=1;exitX=1;exitY=0.5;exitDx=0;exitDy=0;entryX=0;entryY=0.5;entryDx=0;entryDy=0;" edge="1" parent="1" source="dFV4Ou_4mQmUEe5zhMc_-12" target="dFV4Ou_4mQmUEe5zhMc_-7">
          <mxGeometry relative="1" as="geometry" />
        </mxCell>
        <mxCell id="dFV4Ou_4mQmUEe5zhMc_-12" value="API" style="rounded=0;whiteSpace=wrap;html=1;" vertex="1" parent="1">
          <mxGeometry x="620" y="570" width="170" height="30" as="geometry" />
        </mxCell>
        <mxCell id="dFV4Ou_4mQmUEe5zhMc_-13" value="OSS" style="rounded=0;whiteSpace=wrap;html=1;" vertex="1" parent="1">
          <mxGeometry x="980" y="300" width="120" height="30" as="geometry" />
        </mxCell>
        <mxCell id="dFV4Ou_4mQmUEe5zhMc_-14" value="ES" style="rounded=0;whiteSpace=wrap;html=1;" vertex="1" parent="1">
          <mxGeometry x="980" y="340" width="120" height="30" as="geometry" />
        </mxCell>
      </root>
    </mxGraphModel>
  </diagram>
</mxfile>
